<?xml version="1.0" standalone="no"?>
<!DOCTYPE svg PUBLIC "-//W3C//DTD SVG 20010904//EN"
 "http://www.w3.org/TR/2001/REC-SVG-20010904/DTD/svg10.dtd">
<svg version="1.0" xmlns="http://www.w3.org/2000/svg"
 width="3000.000000pt" height="3000.000000pt" viewBox="0 0 3000.000000 3000.000000"
 preserveAspectRatio="xMidYMid meet">
<metadata>
Created by potrace 1.11, written by Peter Selinger 2001-2013
</metadata>
<g transform="translate(0.000000,3000.000000) scale(0.100000,-0.100000)"
fill="#000000" stroke="none">
<path d="M8415 27620 c-3 -6 1 -7 9 -4 18 7 21 14 7 14 -6 0 -13 -4 -16 -10z"/>
<path d="M14580 23999 c-2096 -108 -4089 -937 -5635 -2344 -925 -842 -1672
-1878 -2180 -3025 -670 -1512 -912 -3184 -700 -4837 235 -1831 1036 -3562
2280 -4928 842 -925 1878 -1672 3025 -2180 1512 -670 3184 -912 4837 -700
2120 273 4088 1298 5528 2880 736 809 1327 1759 1730 2785 141 357 269 762
359 1130 62 254 85 358 78 365 -3 3 -13 5 -23 5 -13 0 -21 -12 -29 -42 -237
-919 -571 -1678 -1075 -2438 -1009 -1524 -2510 -2663 -4290 -3256 -705 -234
-1350 -362 -2155 -426 -203 -16 -937 -16 -1140 0 -805 64 -1450 192 -2155 426
-1621 540 -3018 1538 -4020 2871 -1013 1348 -1565 2982 -1565 4635 0 1653 552
3287 1565 4635 1002 1333 2399 2331 4020 2871 705 234 1350 362 2155 426 89 7
332 12 570 12 501 0 772 -18 1230 -84 1458 -209 2847 -795 3995 -1684 1182
-916 2077 -2122 2593 -3491 153 -408 289 -889 357 -1270 9 -49 19 -98 21 -107
6 -22 32 -24 40 -4 13 35 -90 590 -171 916 -429 1735 -1369 3313 -2690 4515
-910 828 -2002 1473 -3165 1870 -810 275 -1624 430 -2500 475 -223 11 -661 11
-890 -1z m9357 -7526 c-3 -10 -5 -4 -5 12 0 17 2 24 5 18 2 -7 2 -21 0 -30z
m10 -55 c-3 -7 -5 -2 -5 12 0 14 2 19 5 13 2 -7 2 -19 0 -25z m10 -50 c-3 -8
-6 -5 -6 6 -1 11 2 17 5 13 3 -3 4 -12 1 -19z m-129 -3476 c-6 -29 -13 -50
-16 -47 -2 2 1 27 8 55 7 28 14 49 16 47 3 -2 -1 -27 -8 -55z"/>
<path d="M15015 19850 c-16 -5 -59 -13 -95 -20 -194 -35 -372 -190 -441 -384
-109 -311 56 -658 364 -766 74 -26 159 -37 387 -50 537 -31 1024 -160 1480
-393 1466 -747 2258 -2365 1949 -3977 -266 -1389 -1313 -2508 -2681 -2864
-258 -68 -465 -100 -748 -116 -228 -13 -313 -24 -387 -50 -164 -57 -306 -199
-363 -363 -78 -221 -23 -460 142 -625 191 -192 448 -229 1055 -152 1296 165
2487 858 3286 1913 892 1176 1201 2715 835 4162 -271 1074 -908 2031 -1801
2708 -665 505 -1497 843 -2326 947 -289 36 -583 50 -656 30z"/>
<path d="M13149 19840 c-200 -31 -367 -155 -454 -335 -30 -64 -44 -115 -60
-217 -4 -24 -11 -38 -20 -38 -13 0 -15 -544 -15 -4297 0 -2751 4 -4322 10
-4366 55 -382 435 -614 797 -487 211 74 361 262 393 492 6 40 15 75 20 78 15
9 14 8655 -1 8717 -28 117 -107 241 -206 324 -54 45 -166 102 -233 117 -70 16
-170 21 -231 12z"/>
</g>
</svg>
